<svg width="128" height="128" viewBox="0 0 128 128" fill="none" xmlns="http://www.w3.org/2000/svg">
<path d="M125.09 117.818H92.951L78.5305 92.5964C74.7126 95.6278 70.4617 98.0695 65.9196 99.84L76.1929 117.818H19.8067L30.0505 99.8982C25.5051 98.1314 21.2496 95.6948 17.425 92.6691L3.04799 117.818H2.90865C2.52288 117.818 2.15291 117.971 1.88013 118.244C1.60735 118.517 1.4541 118.887 1.4541 119.273C1.4541 119.659 1.60735 120.028 1.88013 120.301C2.15291 120.574 2.52288 120.727 2.90865 120.727H125.09C125.476 120.727 125.846 120.574 126.119 120.301C126.392 120.028 126.545 119.659 126.545 119.273C126.545 118.887 126.392 118.517 126.119 118.244C125.846 117.971 125.476 117.818 125.09 117.818Z" fill="#101010"/>
<path d="M126.545 53.8182C126.543 51.89 125.776 50.0415 124.412 48.6781C123.049 47.3147 121.201 46.5477 119.272 46.5455H116.363V61.0909H119.272C121.201 61.0887 123.049 60.3217 124.412 58.9583C125.776 57.5949 126.543 55.7463 126.545 53.8182Z" fill="#101010"/>
<path d="M113.454 55.2728H59.6357V61.0909H113.454V55.2728Z" fill="#101010"/>
<path d="M113.454 46.5455H59.6357V52.3637H113.454V46.5455Z" fill="#101010"/>
<path d="M56.7266 47.1564L47.2777 52.5556C47.0551 52.6829 46.8701 52.8667 46.7414 53.0885C46.6127 53.3102 46.5449 53.5621 46.5449 53.8185C46.5449 54.0749 46.6127 54.3267 46.7414 54.5485C46.8701 54.7703 47.0551 54.9541 47.2777 55.0813L56.7266 60.48V47.1564Z" fill="#101010"/>
<path d="M47.9995 100.364C58.571 100.347 68.8234 96.7402 77.0761 90.1333C85.3287 83.5264 91.0919 74.3118 93.421 64H87.438C84.9598 73.598 79.0662 81.9627 70.862 87.5262C62.6577 93.0896 52.706 95.4699 42.8722 94.2209C33.0385 92.9718 23.9978 88.1792 17.4449 80.7413C10.892 73.3034 7.27675 63.731 7.27675 53.8182C7.27675 43.9055 10.892 34.333 17.4449 26.8951C23.9978 19.4572 33.0385 14.6646 42.8722 13.4155C52.706 12.1665 62.6577 14.5468 70.862 20.1103C79.0662 25.6737 84.9598 34.0384 87.438 43.6364H93.421C91.503 35.0793 87.2068 27.238 81.0271 21.0159C74.8474 14.7938 67.0357 10.444 58.4919 8.46749C49.9481 6.491 41.0198 6.96827 32.7354 9.84432C24.451 12.7204 17.1476 17.8782 11.6664 24.7236C6.18527 31.5691 2.7494 39.8236 1.7546 48.5365C0.75979 57.2493 2.24652 66.0659 6.04352 73.9707C9.84052 81.8755 15.7933 88.5469 23.2162 93.2163C30.6391 97.8858 39.2301 100.363 47.9995 100.364Z" fill="#101010"/>
<path d="M70.5071 43.6364C68.1792 38.4843 64.1561 34.2856 59.1082 31.7398C54.0603 29.194 48.2924 28.4548 42.7657 29.6455C37.2389 30.8362 32.2871 33.8848 28.7352 38.2833C25.1834 42.6818 23.2461 48.1646 23.2461 53.8182C23.2461 59.4717 25.1834 64.9545 28.7352 69.3531C32.2871 73.7516 37.2389 76.8002 42.7657 77.9908C48.2924 79.1815 54.0603 78.4424 59.1082 75.8966C64.1561 73.3507 68.1792 69.152 70.5071 64H58.3688C56.3463 66.0633 53.7552 67.4776 50.9258 68.0625C48.0964 68.6474 45.157 68.3764 42.4822 67.2841C39.8074 66.1918 37.5185 64.3277 35.9074 61.9294C34.2962 59.5311 33.4358 56.7074 33.4358 53.8182C33.4358 50.929 34.2962 48.1052 35.9074 45.7069C37.5185 43.3087 39.8074 41.4446 42.4822 40.3523C45.157 39.26 48.0964 38.989 50.9258 39.5739C53.7552 40.1588 56.3463 41.5731 58.3688 43.6364H70.5071Z" fill="#101010"/>
<path d="M84.4138 43.6364C81.953 34.834 76.3878 27.2206 68.7474 22.2045C61.107 17.1883 51.9085 15.1089 42.8534 16.3508C33.7984 17.5926 25.4994 22.0718 19.4916 28.9598C13.4838 35.8477 10.1738 44.6784 10.1738 53.8182C10.1738 62.9581 13.4838 71.7887 19.4916 78.6766C25.4994 85.5646 33.7984 90.0438 42.8534 91.2857C51.9085 92.5275 61.107 90.4481 68.7474 85.4319C76.3878 80.4158 81.953 72.8024 84.4138 64H73.6676C71.2985 69.978 66.919 74.9428 61.2833 78.0393C55.6476 81.1358 49.1086 82.1702 42.7923 80.9642C36.4761 79.7583 30.7781 76.3876 26.6796 71.4326C22.5812 66.4776 20.3388 60.2485 20.3388 53.8182C20.3388 47.3879 22.5812 41.1588 26.6796 36.2038C30.7781 31.2488 36.4761 27.8781 42.7923 26.6722C49.1086 25.4663 55.6476 26.5006 61.2833 29.5971C66.919 32.6936 71.2985 37.6584 73.6676 43.6364H84.4138Z" fill="#101010"/>
<path d="M45.8361 50.0284L55.1872 44.6855C53.4718 43.3311 51.4097 42.4872 49.237 42.2504C47.0643 42.0136 44.8688 42.3935 42.902 43.3465C40.9352 44.2996 39.2765 45.7873 38.1159 47.6393C36.9554 49.4913 36.3398 51.6327 36.3398 53.8183C36.3398 56.0038 36.9554 58.1452 38.1159 59.9972C39.2765 61.8492 40.9352 63.3369 42.902 64.29C44.8688 65.243 47.0643 65.6229 49.237 65.3861C51.4097 65.1493 53.4718 64.3054 55.1872 62.951L45.8345 57.6065C45.1664 57.2248 44.6112 56.6732 44.2251 56.0077C43.839 55.3422 43.6357 54.5864 43.6358 53.817C43.636 53.0476 43.8396 52.2919 44.2259 51.6266C44.6123 50.9612 45.1679 50.4098 45.8361 50.0284Z" fill="#101010"/>
</svg>
