<svg width="144" height="144" viewBox="0 0 144 144" fill="none" xmlns="http://www.w3.org/2000/svg">
<path d="M62.1825 72.0001C64.8937 72.0001 67.0916 69.8022 67.0916 67.091C67.0916 64.3798 64.8937 62.1819 62.1825 62.1819C59.4713 62.1819 57.2734 64.3798 57.2734 67.091C57.2734 69.8022 59.4713 72.0001 62.1825 72.0001Z" fill="#101010"/>
<path d="M142.364 36V27.8182C142.36 24.7814 141.152 21.87 139.005 19.7227C136.858 17.5753 133.946 16.3673 130.91 16.3636H13.0913C10.0545 16.3673 7.14309 17.5753 4.99575 19.7227C2.8484 21.87 1.6404 24.7814 1.63672 27.8182V36H142.364ZM85.0913 24.5455H130.91C131.344 24.5455 131.76 24.7179 132.067 25.0247C132.374 25.3316 132.546 25.7478 132.546 26.1818C132.546 26.6158 132.374 27.032 132.067 27.3389C131.76 27.6458 131.344 27.8182 130.91 27.8182H85.0913C84.6573 27.8182 84.2411 27.6458 83.9342 27.3389C83.6274 27.032 83.455 26.6158 83.455 26.1818C83.455 25.7478 83.6274 25.3316 83.9342 25.0247C84.2411 24.7179 84.6573 24.5455 85.0913 24.5455ZM42.5458 21.2727C43.5168 21.2727 44.4659 21.5607 45.2732 22.1001C46.0805 22.6395 46.7097 23.4062 47.0813 24.3032C47.4528 25.2002 47.55 26.1873 47.3606 27.1395C47.1712 28.0918 46.7036 28.9665 46.0171 29.6531C45.3305 30.3396 44.4558 30.8072 43.5036 30.9966C42.5513 31.186 41.5642 31.0888 40.6672 30.7172C39.7702 30.3457 39.0035 29.7165 38.4641 28.9092C37.9247 28.1019 37.6367 27.1528 37.6367 26.1818C37.6382 24.8803 38.1558 23.6325 39.0762 22.7122C39.9965 21.7918 41.2443 21.2742 42.5458 21.2727ZM29.4549 21.2727C30.4258 21.2727 31.375 21.5607 32.1823 22.1001C32.9896 22.6395 33.6188 23.4062 33.9903 24.3032C34.3619 25.2002 34.4591 26.1873 34.2697 27.1395C34.0803 28.0918 33.6127 28.9665 32.9262 29.6531C32.2396 30.3396 31.3649 30.8072 30.4126 30.9966C29.4604 31.186 28.4733 31.0888 27.5763 30.7172C26.6793 30.3457 25.9126 29.7165 25.3732 28.9092C24.8337 28.1019 24.5458 27.1528 24.5458 26.1818C24.5473 24.8803 25.0649 23.6325 25.9852 22.7122C26.9056 21.7918 28.1534 21.2742 29.4549 21.2727ZM16.364 21.2727C17.3349 21.2727 18.2841 21.5607 19.0913 22.1001C19.8986 22.6395 20.5279 23.4062 20.8994 24.3032C21.271 25.2002 21.3682 26.1873 21.1788 27.1395C20.9894 28.0918 20.5218 28.9665 19.8353 29.6531C19.1487 30.3396 18.274 30.8072 17.3217 30.9966C16.3694 31.186 15.3824 31.0888 14.4854 30.7172C13.5884 30.3457 12.8217 29.7165 12.2822 28.9092C11.7428 28.1019 11.4549 27.1528 11.4549 26.1818C11.4563 24.8803 11.974 23.6325 12.8943 22.7122C13.8147 21.7918 15.0625 21.2742 16.364 21.2727Z" fill="#101010"/>
<path d="M42.5455 27.8182C43.4493 27.8182 44.1819 27.0856 44.1819 26.1818C44.1819 25.2781 43.4493 24.5455 42.5455 24.5455C41.6418 24.5455 40.9092 25.2781 40.9092 26.1818C40.9092 27.0856 41.6418 27.8182 42.5455 27.8182Z" fill="#101010"/>
<path d="M29.4547 27.8182C30.3585 27.8182 31.0911 27.0856 31.0911 26.1818C31.0911 25.2781 30.3585 24.5455 29.4547 24.5455C28.551 24.5455 27.8184 25.2781 27.8184 26.1818C27.8184 27.0856 28.551 27.8182 29.4547 27.8182Z" fill="#101010"/>
<path d="M16.3639 27.8182C17.2676 27.8182 18.0003 27.0856 18.0003 26.1818C18.0003 25.2781 17.2676 24.5455 16.3639 24.5455C15.4602 24.5455 14.7275 25.2781 14.7275 26.1818C14.7275 27.0856 15.4602 27.8182 16.3639 27.8182Z" fill="#101010"/>
<path d="M91.637 62.8595L64.9757 89.5206C64.6671 89.8187 64.2537 89.9836 63.8247 89.9799C63.3956 89.9761 62.9852 89.804 62.6818 89.5007C62.3784 89.1973 62.2063 88.7868 62.2026 88.3578C62.1989 87.9287 62.3638 87.5154 62.6619 87.2068L90.4801 59.3886C90.632 59.2366 90.8123 59.116 91.0108 59.0337C91.2093 58.9514 91.4221 58.9091 91.637 58.9091C91.8519 58.9091 92.0647 58.9514 92.2632 59.0337C92.4617 59.116 92.642 59.2366 92.7939 59.3886L127.637 94.2315V50.7273H16.3643V99.1406L41.3892 74.1158C41.541 73.9638 41.7214 73.8432 41.9199 73.761C42.1184 73.6787 42.3312 73.6363 42.5461 73.6363C42.761 73.6363 42.9737 73.6787 43.1723 73.761C43.3708 73.8432 43.5511 73.9638 43.703 74.1158L71.5212 101.934C71.6775 102.085 71.8021 102.266 71.8879 102.465C71.9736 102.665 72.0188 102.88 72.0207 103.097C72.0226 103.314 71.9812 103.53 71.8989 103.731C71.8166 103.932 71.6951 104.114 71.5415 104.268C71.3878 104.422 71.2051 104.543 71.004 104.626C70.8029 104.708 70.5874 104.749 70.3701 104.747C70.1529 104.745 69.9382 104.7 69.7385 104.615C69.5389 104.529 69.3583 104.404 69.2074 104.248L42.5461 77.5867L16.3643 103.769V112.909H127.637V98.8595L91.637 62.8595ZM54.0006 67.0909C54.0006 65.4727 54.4805 63.8909 55.3795 62.5454C56.2785 61.1999 57.5564 60.1512 59.0514 59.5319C60.5464 58.9127 62.1915 58.7506 63.7786 59.0663C65.3658 59.382 66.8236 60.1613 67.9679 61.3055C69.1121 62.4498 69.8914 63.9076 70.2071 65.4947C70.5227 67.0819 70.3607 68.727 69.7415 70.222C69.1222 71.717 68.0735 72.9948 66.728 73.8939C65.3825 74.7929 63.8007 75.2728 62.1824 75.2728C60.0133 75.2702 57.9337 74.4074 56.3998 72.8735C54.866 71.3397 54.0032 69.2601 54.0006 67.0909Z" fill="#101010"/>
<path d="M1.63672 39.2728V116.182C1.6404 119.219 2.8484 122.13 4.99575 124.277C7.14309 126.425 10.0545 127.633 13.0913 127.636H130.91C133.946 127.633 136.858 126.425 139.005 124.277C141.152 122.13 142.36 119.219 142.364 116.182V39.2728H1.63672ZM130.91 114.546C130.91 114.98 130.737 115.396 130.43 115.703C130.123 116.01 129.707 116.182 129.273 116.182H14.7276C14.2936 116.182 13.8774 116.01 13.5706 115.703C13.2637 115.396 13.0913 114.98 13.0913 114.546V49.091C13.0913 48.657 13.2637 48.2407 13.5706 47.9339C13.8774 47.627 14.2936 47.4546 14.7276 47.4546H129.273C129.707 47.4546 130.123 47.627 130.43 47.9339C130.737 48.2407 130.91 48.657 130.91 49.091V114.546Z" fill="#101010"/>
</svg>
